{
  "accessors": [
    {
      "bufferView": 2,
      "componentType": 5126,
      "count": 1194,
      "max": [
        19.803396224975586,
        21.061866760253906,
        30.361421585083008
      ],
      "min": [
        -19.803396224975586,
        -21.0617618560791,
        -30.360050201416016
      ],
      "type": "VEC3"
    },
    {
      "bufferView": 2,
      "byteOffset": 14328,
      "componentType": 5126,
      "count": 1194,
      "max": [
        0.9985554814338684,
        0.9873303174972534,
        0.9991831183433533
      ],
      "min": [
        -0.9985554814338684,
        -1.0000019073486328,
        -0.9997640252113342
      ],
      "type": "VEC3"
    },
    {
      "bufferView": 1,
      "componentType": 5126,
      "count": 1194,
      "max": [
        0.9997860193252563,
        0.9933930039405823
      ],
      "min": [
        0.0073540001176297665,
        0.0028379999566823244
      ],
      "type": "VEC2"
    },
    {
      "bufferView": 0,
      "componentType": 5125,
      "count": 5040,
      "type": "SCALAR"
    },
    {
      "bufferView": 2,
      "byteOffset": 28656,
      "componentType": 5126,
      "count": 98,
      "max": [
        12.833001136779785,
        9.255783081054688,
        10.242024421691895
      ],
      "min": [
        -12.832900047302246,
        -2.4705002307891846,
        0.5145546197891235
      ],
      "type": "VEC3"
    },
    {
      "bufferView": 2,
      "byteOffset": 29832,
      "componentType": 5126,
      "count": 98,
      "max": [
        0.9995564818382263,
        0.7672833800315857,
        0.9809576869010925
      ],
      "min": [
        -0.9995565414428711,
        -0.7922195792198181,
        -0.35536253452301025
      ],
      "type": "VEC3"
    },
    {
      "bufferView": 1,
      "byteOffset": 9552,
      "componentType": 5126,
      "count": 98,
      "max": [
        0.9128710031509399,
        0.7056379914283752
      ],
      "min": [
        0.6782940030097961,
        0.47063401341438293
      ],
      "type": "VEC2"
    },
    {
      "bufferView": 0,
      "byteOffset": 20160,
      "componentType": 5125,
      "count": 1008,
      "type": "SCALAR"
    },
    {
      "bufferView": 2,
      "byteOffset": 31008,
      "componentType": 5126,
      "count": 98,
      "max": [
        12.833001136779785,
        9.255783081054688,
        10.242024421691895
      ],
      "min": [
        -12.832900047302246,
        -2.4705002307891846,
        0.5145546197891235
      ],
      "type": "VEC3"
    },
    {
      "bufferView": 2,
      "byteOffset": 32184,
      "componentType": 5126,
      "count": 98,
      "max": [
        0.9995564818382263,
        0.7672833800315857,
        0.9809576869010925
      ],
      "min": [
        -0.9995565414428711,
        -0.7922195792198181,
        -0.35536253452301025
      ],
      "type": "VEC3"
    },
    {
      "bufferView": 1,
      "byteOffset": 10336,
      "componentType": 5126,
      "count": 98,
      "max": [
        0.9128710031509399,
        0.7056379914283752
      ],
      "min": [
        0.6782940030097961,
        0.47063401341438293
      ],
      "type": "VEC2"
    },
    {
      "bufferView": 0,
      "byteOffset": 24192,
      "componentType": 5125,
      "count": 1008,
      "type": "SCALAR"
    },
    {
      "bufferView": 2,
      "byteOffset": 33360,
      "componentType": 5126,
      "count": 1194,
      "max": [
        19.803396224975586,
        21.061866760253906,
        30.361421585083008
      ],
      "min": [
        -19.803396224975586,
        -21.0617618560791,
        -30.360050201416016
      ],
      "type": "VEC3"
    },
    {
      "bufferView": 2,
      "byteOffset": 47688,
      "componentType": 5126,
      "count": 1194,
      "max": [
        0.9985554814338684,
        0.9873303174972534,
        0.9991831183433533
      ],
      "min": [
        -0.9985554814338684,
        -1.0000019073486328,
        -0.9997640252113342
      ],
      "type": "VEC3"
    },
    {
      "bufferView": 1,
      "byteOffset": 11120,
      "componentType": 5126,
      "count": 1194,
      "max": [
        0.9997860193252563,
        0.9933930039405823
      ],
      "min": [
        0.0073540001176297665,
        0.0028379999566823244
      ],
      "type": "VEC2"
    },
    {
      "bufferView": 0,
      "byteOffset": 28224,
      "componentType": 5125,
      "count": 5040,
      "type": "SCALAR"
    }
  ],
  "asset": {
    "extras": {
      "author": "lucasquaresmapr (https://sketchfab.com/lucasquaresmapr)",
      "license": "CC-BY-4.0 (http://creativecommons.org/licenses/by/4.0/)",
      "source": "https://sketchfab.com/3d-models/pikmin-3-fiery-blowhog-1-56bdd401d1574333b1dac788031c96c3",
      "title": "Pikmin 3 - Fiery Blowhog (1)"
    },
    "generator": "Sketchfab-15.44.0",
    "version": "2.0"
  },
  "bufferViews": [
    {
      "buffer": 0,
      "byteLength": 48384,
      "name": "floatBufferViews",
      "target": 34963
    },
    {
      "buffer": 0,
      "byteLength": 20672,
      "byteOffset": 48384,
      "byteStride": 8,
      "name": "floatBufferViews",
      "target": 34962
    },
    {
      "buffer": 0,
      "byteLength": 62016,
      "byteOffset": 69056,
      "byteStride": 12,
      "name": "floatBufferViews",
      "target": 34962
    }
  ],
  "buffers": [
    {
      "byteLength": 131072,
      "uri": "scene.bin"
    }
  ],
  "images": [
    {
      "uri": "textures/body_m_baseColor.png"
    }
  ],
  "materials": [
    {
      "doubleSided": true,
      "name": "body_m",
      "pbrMetallicRoughness": {
        "baseColorTexture": {
          "index": 0
        },
        "metallicFactor": 0.0
      }
    },
    {
      "doubleSided": true,
      "name": "eye_1",
      "pbrMetallicRoughness": {
        "baseColorTexture": {
          "index": 0
        },
        "metallicFactor": 0.0
      }
    }
  ],
  "meshes": [
    {
      "name": "Object_0",
      "primitives": [
        {
          "attributes": {
            "NORMAL": 1,
            "POSITION": 0,
            "TEXCOORD_0": 2
          },
          "indices": 3,
          "material": 0,
          "mode": 4
        }
      ]
    },
    {
      "name": "Object_1",
      "primitives": [
        {
          "attributes": {
            "NORMAL": 5,
            "POSITION": 4,
            "TEXCOORD_0": 6
          },
          "indices": 7,
          "material": 1,
          "mode": 4
        }
      ]
    },
    {
      "name": "Object_2",
      "primitives": [
        {
          "attributes": {
            "NORMAL": 9,
            "POSITION": 8,
            "TEXCOORD_0": 10
          },
          "indices": 11,
          "material": 1,
          "mode": 4
        }
      ]
    },
    {
      "name": "Object_3",
      "primitives": [
        {
          "attributes": {
            "NORMAL": 13,
            "POSITION": 12,
            "TEXCOORD_0": 14
          },
          "indices": 15,
          "material": 0,
          "mode": 4
        }
      ]
    }
  ],
  "nodes": [
    {
      "children": [
        1
      ],
      "matrix": [
        1.0,
        0.0,
        0.0,
        0.0,
        0.0,
        2.220446049250313e-16,
        -1.0,
        0.0,
        0.0,
        1.0,
        2.220446049250313e-16,
        0.0,
        0.0,
        0.0,
        0.0,
        1.0
      ],
      "name": "Sketchfab_model"
    },
    {
      "children": [
        2
      ],
      "matrix": [
        1.0,
        0.0,
        0.0,
        0.0,
        0.0,
        -4.371139006309477e-08,
        0.999999999999999,
        0.0,
        0.0,
        -0.999999999999999,
        -4.371139006309477e-08,
        0.0,
        0.0,
        0.0,
        0.0,
        1.0
      ],
      "name": "Collada visual scene group"
    },
    {
      "children": [
        3,
        4,
        5,
        6
      ],
      "name": "Object_2"
    },
    {
      "mesh": 0,
      "name": "Object_3"
    },
    {
      "mesh": 1,
      "name": "Object_4"
    },
    {
      "mesh": 2,
      "name": "Object_5"
    },
    {
      "mesh": 3,
      "name": "Object_6"
    }
  ],
  "samplers": [
    {
      "magFilter": 9729,
      "minFilter": 9987,
      "wrapS": 10497,
      "wrapT": 10497
    }
  ],
  "scene": 0,
  "scenes": [
    {
      "name": "Sketchfab_Scene",
      "nodes": [
        0
      ]
    }
  ],
  "textures": [
    {
      "sampler": 0,
      "source": 0
    }
  ]
}
